<?xml version="1.0" standalone="no"?><!DOCTYPE svg PUBLIC "-//W3C//DTD SVG 1.1//EN" "http://www.w3.org/Graphics/SVG/1.1/DTD/svg11.dtd"><svg class="icon" height="512" viewBox="0 0 1024 1024" version="1.1" xmlns="http://www.w3.org/2000/svg"><path d="M826.610203 720.141507m-61.342744 0a1.375 1.375 0 1 0 122.685488 0 1.375 1.375 0 1 0-122.685488 0ZM463.996515 173.722651C254.315863 294.802074 69.083083 510.282403 69.083083 510.282403l91.768745 53.223195c8.387226-9.413323 18.157452-20.12042 29.043001-31.809001l-55.498453-30.782904c0 0 138.656908-169.662876 353.289592-293.597525s433.325143-160.561844 433.325143-160.561844l-2.186032 66.785518c12.536226-2.855226 24.046356-5.353549 34.351937-7.494968L952.909336 0C952.909336 0 673.721779 52.68784 463.996515 173.722651zM796.942622 383.001786m-61.342744 0a1.375 1.375 0 1 0 122.685488 0 1.375 1.375 0 1 0-122.685488 0ZM582.04226 459.869821m-61.342744 0a1.375 1.375 0 1 0 122.685488 0 1.375 1.375 0 1 0-122.685488 0ZM610.817584 632.164859m-61.342744 0a1.375 1.375 0 1 0 122.685488 0 1.375 1.375 0 1 0-122.685488 0ZM194.9807 583.313728l759.891605 440.686272-1.69529-878.428092c-97.033068 21.057291-270.621879 67.320873-417.6214 152.174618C388.600706 382.60027 261.766218 509.791661 194.9807 583.313728zM912.222367 215.257265l1.784516 737.85283L275.863896 582.689147c0 0 112.335294-147.668714 282.310461-245.817105C728.149523 238.723653 912.222367 215.257265 912.222367 215.257265z" /></svg>