<?xml version="1.0" standalone="no"?><!DOCTYPE svg PUBLIC "-//W3C//DTD SVG 1.1//EN" "http://www.w3.org/Graphics/SVG/1.1/DTD/svg11.dtd"><svg class="icon" height="512" viewBox="0 0 1024 1024" version="1.1" xmlns="http://www.w3.org/2000/svg"><path d="M795.472971 85.389308c-37.631578 27.708627-45.674926 80.681832-17.960654 118.319055 27.714272 37.625934 80.687477 45.674926 118.319055 17.95501 37.637223-27.708627 45.674926-80.681832 17.966299-118.319055C886.077755 65.707095 833.110194 57.68068 795.472971 85.389308zM873.535777 191.380874c-20.912704 15.392427-50.331601 10.933308-65.735317-9.979396-15.398072-20.912704-10.933308-50.331601 9.973751-65.729673 20.912704-15.392427 50.337245-10.933308 65.735317 9.98504C898.9076 146.563905 894.431547 175.988447 873.535777 191.380874zM812.293445 204.950142 155.115254 688.900026 102.28316 701.007381 129.472497 654.079386 786.645044 170.129503ZM317.19012 542.697366m-87.443889 0a15.492 15.492 0 1 0 174.887778 0 15.492 15.492 0 1 0-174.887778 0ZM502.903962 466.643986c12.3162 16.741452 8.74326 40.278827-7.981259 52.595027l-1.518358 1.106313c-16.724519 12.321844-40.267538 8.754549-52.578094-7.96997L382.835126 433.629572c-12.3162-16.724519-8.748904-40.261894 7.981259-52.578094l1.518358-1.123246c16.724519-12.3162 40.261894-8.737616 52.583738 7.975614L502.903962 466.643986zM562.498112 362.040955m-87.443889 0a15.492 15.492 0 1 0 174.887778 0 15.492 15.492 0 1 0-174.887778 0ZM748.217598 286.004509c12.3162 16.718874 8.737616 40.261894-7.986903 52.589382l-1.524003 1.106313c-16.71323 12.3162-40.256249 8.737616-52.578094-7.975614l-57.985481-78.745785c-12.3162-16.735808-8.748904-40.278827 7.975614-52.589382l1.524003-1.111958c16.718874-12.3162 40.267538-8.754549 52.578094 7.975614L748.217598 286.004509zM118.748034 922.540931c27.708627 37.625934 80.681832 45.663637 118.313411 17.95501 37.631578-27.702983 45.674926-80.681832 17.95501-118.319055-27.708627-37.625934-80.687477-45.674926-118.319055-17.95501C99.071465 831.936147 91.033762 884.909352 118.748034 922.540931zM149.030532 900.234046c-15.398072-20.907059-10.933308-50.337245 9.973751-65.729673 20.912704-15.398072 50.337245-10.933308 65.735317 9.979396 15.398072 20.912704 10.933308 50.337245-9.973751 65.735317C193.858789 925.605869 164.428604 921.141106 149.030532 900.234046zM245.895015 855.755745 903.067563 371.811506 930.302055 324.9456 877.419161 336.990866 220.246614 820.935105ZM715.34994 483.187882m-87.443889 0a15.492 15.492 0 1 0 174.887778 0 15.492 15.492 0 1 0-174.887778 0ZM587.615935 637.981402c12.321844 16.71323 35.859219 20.291814 52.583738 7.96997l1.518358-1.117602c16.724519-12.3162 20.303103-35.859219 7.986903-52.578094l-57.991125-78.74014c-12.3162-16.724519-35.859219-20.303103-52.578094-7.986903l-1.524003 1.123246c-16.718874 12.3162-20.297458 35.853575-7.981259 52.578094L587.615935 637.981402zM470.047592 663.838648m-87.443889 0a15.492 15.492 0 1 0 174.887778 0 15.492 15.492 0 1 0-174.887778 0ZM342.313587 818.626523c12.321844 16.71323 35.859219 20.291814 52.589382 7.975614l1.512714-1.111958c16.724519-12.3162 20.297458-35.864864 7.981259-52.572449L346.405816 694.155013c-12.3162-16.730163-35.853575-20.297458-52.572449-7.975614l-1.524003 1.123246c-16.724519 12.3162-20.297458 35.853575-7.981259 52.572449L342.313587 818.626523z" /></svg>